<mxfile host="app.diagrams.net" modified="2021-09-27T18:07:40.623Z" agent="5.0 (Windows NT 10.0; Win64; x64) AppleWebKit/537.36 (KHTML, like Gecko) Chrome/93.0.4577.82 Safari/537.36" etag="4RHJrw9CiLz-mWdhmPB5" version="15.2.7" type="github">
  <diagram id="R2lEEEUBdFMjLlhIrx00" name="Page-1">
    <mxGraphModel dx="718" dy="335" grid="1" gridSize="10" guides="1" tooltips="1" connect="1" arrows="1" fold="1" page="1" pageScale="1" pageWidth="850" pageHeight="1100" math="0" shadow="0" extFonts="Permanent Marker^https://fonts.googleapis.com/css?family=Permanent+Marker">
      <root>
        <mxCell id="0" />
        <mxCell id="1" parent="0" />
        <mxCell id="PbLQyDcfiBEk4vMYMfuu-1" value="Customers" style="shape=table;startSize=30;container=1;collapsible=1;childLayout=tableLayout;fixedRows=1;rowLines=0;fontStyle=1;align=center;resizeLast=1;labelBackgroundColor=#FFB8EE;" vertex="1" parent="1">
          <mxGeometry x="20" y="10" width="190" height="270" as="geometry" />
        </mxCell>
        <mxCell id="PbLQyDcfiBEk4vMYMfuu-2" value="" style="shape=partialRectangle;collapsible=0;dropTarget=0;pointerEvents=0;fillColor=none;top=0;left=0;bottom=1;right=0;points=[[0,0.5],[1,0.5]];portConstraint=eastwest;" vertex="1" parent="PbLQyDcfiBEk4vMYMfuu-1">
          <mxGeometry y="30" width="190" height="20" as="geometry" />
        </mxCell>
        <mxCell id="PbLQyDcfiBEk4vMYMfuu-3" value="PK" style="shape=partialRectangle;connectable=0;fillColor=none;top=0;left=0;bottom=0;right=0;fontStyle=1;overflow=hidden;" vertex="1" parent="PbLQyDcfiBEk4vMYMfuu-2">
          <mxGeometry width="30" height="20" as="geometry" />
        </mxCell>
        <mxCell id="PbLQyDcfiBEk4vMYMfuu-4" value="CustomerId" style="shape=partialRectangle;connectable=0;fillColor=none;top=0;left=0;bottom=0;right=0;align=left;spacingLeft=6;fontStyle=5;overflow=hidden;" vertex="1" parent="PbLQyDcfiBEk4vMYMfuu-2">
          <mxGeometry x="30" width="160" height="20" as="geometry" />
        </mxCell>
        <mxCell id="PbLQyDcfiBEk4vMYMfuu-5" value="" style="shape=partialRectangle;collapsible=0;dropTarget=0;pointerEvents=0;fillColor=none;top=0;left=0;bottom=0;right=0;points=[[0,0.5],[1,0.5]];portConstraint=eastwest;" vertex="1" parent="PbLQyDcfiBEk4vMYMfuu-1">
          <mxGeometry y="50" width="190" height="30" as="geometry" />
        </mxCell>
        <mxCell id="PbLQyDcfiBEk4vMYMfuu-6" value="" style="shape=partialRectangle;connectable=0;fillColor=none;top=0;left=0;bottom=0;right=0;editable=1;overflow=hidden;" vertex="1" parent="PbLQyDcfiBEk4vMYMfuu-5">
          <mxGeometry width="30" height="30" as="geometry" />
        </mxCell>
        <mxCell id="PbLQyDcfiBEk4vMYMfuu-7" value="FirstName" style="shape=partialRectangle;connectable=0;fillColor=none;top=0;left=0;bottom=0;right=0;align=left;spacingLeft=6;overflow=hidden;" vertex="1" parent="PbLQyDcfiBEk4vMYMfuu-5">
          <mxGeometry x="30" width="160" height="30" as="geometry" />
        </mxCell>
        <mxCell id="PbLQyDcfiBEk4vMYMfuu-8" value="" style="shape=partialRectangle;collapsible=0;dropTarget=0;pointerEvents=0;fillColor=none;top=0;left=0;bottom=0;right=0;points=[[0,0.5],[1,0.5]];portConstraint=eastwest;" vertex="1" parent="PbLQyDcfiBEk4vMYMfuu-1">
          <mxGeometry y="80" width="190" height="30" as="geometry" />
        </mxCell>
        <mxCell id="PbLQyDcfiBEk4vMYMfuu-9" value="" style="shape=partialRectangle;connectable=0;fillColor=none;top=0;left=0;bottom=0;right=0;editable=1;overflow=hidden;" vertex="1" parent="PbLQyDcfiBEk4vMYMfuu-8">
          <mxGeometry width="30" height="30" as="geometry" />
        </mxCell>
        <mxCell id="PbLQyDcfiBEk4vMYMfuu-10" value="LastName" style="shape=partialRectangle;connectable=0;fillColor=none;top=0;left=0;bottom=0;right=0;align=left;spacingLeft=6;overflow=hidden;" vertex="1" parent="PbLQyDcfiBEk4vMYMfuu-8">
          <mxGeometry x="30" width="160" height="30" as="geometry" />
        </mxCell>
        <mxCell id="PbLQyDcfiBEk4vMYMfuu-11" value="" style="shape=partialRectangle;collapsible=0;dropTarget=0;pointerEvents=0;fillColor=none;top=0;left=0;bottom=0;right=0;points=[[0,0.5],[1,0.5]];portConstraint=eastwest;" vertex="1" parent="PbLQyDcfiBEk4vMYMfuu-1">
          <mxGeometry y="110" width="190" height="30" as="geometry" />
        </mxCell>
        <mxCell id="PbLQyDcfiBEk4vMYMfuu-12" value="" style="shape=partialRectangle;connectable=0;fillColor=none;top=0;left=0;bottom=0;right=0;editable=1;overflow=hidden;" vertex="1" parent="PbLQyDcfiBEk4vMYMfuu-11">
          <mxGeometry width="30" height="30" as="geometry" />
        </mxCell>
        <mxCell id="PbLQyDcfiBEk4vMYMfuu-13" value="StreetAddress" style="shape=partialRectangle;connectable=0;fillColor=none;top=0;left=0;bottom=0;right=0;align=left;spacingLeft=6;overflow=hidden;" vertex="1" parent="PbLQyDcfiBEk4vMYMfuu-11">
          <mxGeometry x="30" width="160" height="30" as="geometry" />
        </mxCell>
        <mxCell id="PbLQyDcfiBEk4vMYMfuu-14" value="" style="shape=partialRectangle;collapsible=0;dropTarget=0;pointerEvents=0;fillColor=none;top=0;left=0;bottom=0;right=0;points=[[0,0.5],[1,0.5]];portConstraint=eastwest;" vertex="1" parent="PbLQyDcfiBEk4vMYMfuu-1">
          <mxGeometry y="140" width="190" height="30" as="geometry" />
        </mxCell>
        <mxCell id="PbLQyDcfiBEk4vMYMfuu-15" value="" style="shape=partialRectangle;connectable=0;fillColor=none;top=0;left=0;bottom=0;right=0;editable=1;overflow=hidden;" vertex="1" parent="PbLQyDcfiBEk4vMYMfuu-14">
          <mxGeometry width="30" height="30" as="geometry" />
        </mxCell>
        <mxCell id="PbLQyDcfiBEk4vMYMfuu-16" value="City" style="shape=partialRectangle;connectable=0;fillColor=none;top=0;left=0;bottom=0;right=0;align=left;spacingLeft=6;overflow=hidden;" vertex="1" parent="PbLQyDcfiBEk4vMYMfuu-14">
          <mxGeometry x="30" width="160" height="30" as="geometry" />
        </mxCell>
        <mxCell id="PbLQyDcfiBEk4vMYMfuu-17" value="" style="shape=partialRectangle;collapsible=0;dropTarget=0;pointerEvents=0;fillColor=none;top=0;left=0;bottom=0;right=0;points=[[0,0.5],[1,0.5]];portConstraint=eastwest;" vertex="1" parent="PbLQyDcfiBEk4vMYMfuu-1">
          <mxGeometry y="170" width="190" height="30" as="geometry" />
        </mxCell>
        <mxCell id="PbLQyDcfiBEk4vMYMfuu-18" value="" style="shape=partialRectangle;connectable=0;fillColor=none;top=0;left=0;bottom=0;right=0;editable=1;overflow=hidden;" vertex="1" parent="PbLQyDcfiBEk4vMYMfuu-17">
          <mxGeometry width="30" height="30" as="geometry" />
        </mxCell>
        <mxCell id="PbLQyDcfiBEk4vMYMfuu-19" value="State" style="shape=partialRectangle;connectable=0;fillColor=none;top=0;left=0;bottom=0;right=0;align=left;spacingLeft=6;overflow=hidden;" vertex="1" parent="PbLQyDcfiBEk4vMYMfuu-17">
          <mxGeometry x="30" width="160" height="30" as="geometry" />
        </mxCell>
        <mxCell id="PbLQyDcfiBEk4vMYMfuu-20" value="" style="shape=partialRectangle;collapsible=0;dropTarget=0;pointerEvents=0;fillColor=none;top=0;left=0;bottom=0;right=0;points=[[0,0.5],[1,0.5]];portConstraint=eastwest;" vertex="1" parent="PbLQyDcfiBEk4vMYMfuu-1">
          <mxGeometry y="200" width="190" height="30" as="geometry" />
        </mxCell>
        <mxCell id="PbLQyDcfiBEk4vMYMfuu-21" value="" style="shape=partialRectangle;connectable=0;fillColor=none;top=0;left=0;bottom=0;right=0;editable=1;overflow=hidden;" vertex="1" parent="PbLQyDcfiBEk4vMYMfuu-20">
          <mxGeometry width="30" height="30" as="geometry" />
        </mxCell>
        <mxCell id="PbLQyDcfiBEk4vMYMfuu-22" value="ZipCode" style="shape=partialRectangle;connectable=0;fillColor=none;top=0;left=0;bottom=0;right=0;align=left;spacingLeft=6;overflow=hidden;" vertex="1" parent="PbLQyDcfiBEk4vMYMfuu-20">
          <mxGeometry x="30" width="160" height="30" as="geometry" />
        </mxCell>
        <mxCell id="PbLQyDcfiBEk4vMYMfuu-23" value="" style="shape=partialRectangle;collapsible=0;dropTarget=0;pointerEvents=0;fillColor=none;top=0;left=0;bottom=0;right=0;points=[[0,0.5],[1,0.5]];portConstraint=eastwest;" vertex="1" parent="PbLQyDcfiBEk4vMYMfuu-1">
          <mxGeometry y="230" width="190" height="30" as="geometry" />
        </mxCell>
        <mxCell id="PbLQyDcfiBEk4vMYMfuu-24" value="" style="shape=partialRectangle;connectable=0;fillColor=none;top=0;left=0;bottom=0;right=0;editable=1;overflow=hidden;" vertex="1" parent="PbLQyDcfiBEk4vMYMfuu-23">
          <mxGeometry width="30" height="30" as="geometry" />
        </mxCell>
        <mxCell id="PbLQyDcfiBEk4vMYMfuu-25" value="MemberSince" style="shape=partialRectangle;connectable=0;fillColor=none;top=0;left=0;bottom=0;right=0;align=left;spacingLeft=6;overflow=hidden;" vertex="1" parent="PbLQyDcfiBEk4vMYMfuu-23">
          <mxGeometry x="30" width="160" height="30" as="geometry" />
        </mxCell>
        <mxCell id="PbLQyDcfiBEk4vMYMfuu-30" value="Customer Table" style="shape=table;startSize=20;container=1;collapsible=0;childLayout=tableLayout;fontStyle=1;align=center;pointerEvents=1;labelBackgroundColor=#FFB8EE;" vertex="1" parent="1">
          <mxGeometry x="10" y="480" width="770" height="190" as="geometry" />
        </mxCell>
        <mxCell id="PbLQyDcfiBEk4vMYMfuu-31" value="" style="shape=partialRectangle;html=1;whiteSpace=wrap;collapsible=0;dropTarget=0;pointerEvents=0;fillColor=none;top=0;left=0;bottom=0;right=0;points=[[0,0.5],[1,0.5]];portConstraint=eastwest;" vertex="1" parent="PbLQyDcfiBEk4vMYMfuu-30">
          <mxGeometry y="20" width="770" height="43" as="geometry" />
        </mxCell>
        <mxCell id="PbLQyDcfiBEk4vMYMfuu-32" value="CustomerId" style="shape=partialRectangle;html=1;whiteSpace=wrap;connectable=0;fillColor=none;top=0;left=0;bottom=0;right=0;overflow=hidden;pointerEvents=1;" vertex="1" parent="PbLQyDcfiBEk4vMYMfuu-31">
          <mxGeometry width="90" height="43" as="geometry" />
        </mxCell>
        <mxCell id="PbLQyDcfiBEk4vMYMfuu-33" value="FirstName" style="shape=partialRectangle;html=1;whiteSpace=wrap;connectable=0;fillColor=none;top=0;left=0;bottom=0;right=0;overflow=hidden;pointerEvents=1;" vertex="1" parent="PbLQyDcfiBEk4vMYMfuu-31">
          <mxGeometry x="90" width="80" height="43" as="geometry" />
        </mxCell>
        <mxCell id="PbLQyDcfiBEk4vMYMfuu-34" value="LastName" style="shape=partialRectangle;html=1;whiteSpace=wrap;connectable=0;fillColor=none;top=0;left=0;bottom=0;right=0;overflow=hidden;pointerEvents=1;" vertex="1" parent="PbLQyDcfiBEk4vMYMfuu-31">
          <mxGeometry x="170" width="100" height="43" as="geometry" />
        </mxCell>
        <mxCell id="PbLQyDcfiBEk4vMYMfuu-60" value="StreetAddress" style="shape=partialRectangle;html=1;whiteSpace=wrap;connectable=0;fillColor=none;top=0;left=0;bottom=0;right=0;overflow=hidden;pointerEvents=1;" vertex="1" parent="PbLQyDcfiBEk4vMYMfuu-31">
          <mxGeometry x="270" width="100" height="43" as="geometry" />
        </mxCell>
        <mxCell id="PbLQyDcfiBEk4vMYMfuu-64" value="City" style="shape=partialRectangle;html=1;whiteSpace=wrap;connectable=0;fillColor=none;top=0;left=0;bottom=0;right=0;overflow=hidden;pointerEvents=1;" vertex="1" parent="PbLQyDcfiBEk4vMYMfuu-31">
          <mxGeometry x="370" width="100" height="43" as="geometry" />
        </mxCell>
        <mxCell id="PbLQyDcfiBEk4vMYMfuu-68" value="State" style="shape=partialRectangle;html=1;whiteSpace=wrap;connectable=0;fillColor=none;top=0;left=0;bottom=0;right=0;overflow=hidden;pointerEvents=1;" vertex="1" parent="PbLQyDcfiBEk4vMYMfuu-31">
          <mxGeometry x="470" width="100" height="43" as="geometry" />
        </mxCell>
        <mxCell id="PbLQyDcfiBEk4vMYMfuu-72" value="ZipCode" style="shape=partialRectangle;html=1;whiteSpace=wrap;connectable=0;fillColor=none;top=0;left=0;bottom=0;right=0;overflow=hidden;pointerEvents=1;" vertex="1" parent="PbLQyDcfiBEk4vMYMfuu-31">
          <mxGeometry x="570" width="100" height="43" as="geometry" />
        </mxCell>
        <mxCell id="PbLQyDcfiBEk4vMYMfuu-76" value="MemberSince" style="shape=partialRectangle;html=1;whiteSpace=wrap;connectable=0;fillColor=none;top=0;left=0;bottom=0;right=0;overflow=hidden;pointerEvents=1;" vertex="1" parent="PbLQyDcfiBEk4vMYMfuu-31">
          <mxGeometry x="670" width="100" height="43" as="geometry" />
        </mxCell>
        <mxCell id="PbLQyDcfiBEk4vMYMfuu-35" value="" style="shape=partialRectangle;html=1;whiteSpace=wrap;collapsible=0;dropTarget=0;pointerEvents=0;fillColor=none;top=0;left=0;bottom=0;right=0;points=[[0,0.5],[1,0.5]];portConstraint=eastwest;" vertex="1" parent="PbLQyDcfiBEk4vMYMfuu-30">
          <mxGeometry y="63" width="770" height="42" as="geometry" />
        </mxCell>
        <mxCell id="PbLQyDcfiBEk4vMYMfuu-36" value="1" style="shape=partialRectangle;html=1;whiteSpace=wrap;connectable=0;fillColor=none;top=0;left=0;bottom=0;right=0;overflow=hidden;pointerEvents=1;" vertex="1" parent="PbLQyDcfiBEk4vMYMfuu-35">
          <mxGeometry width="90" height="42" as="geometry" />
        </mxCell>
        <mxCell id="PbLQyDcfiBEk4vMYMfuu-37" value="Audry" style="shape=partialRectangle;html=1;whiteSpace=wrap;connectable=0;fillColor=none;top=0;left=0;bottom=0;right=0;overflow=hidden;pointerEvents=1;" vertex="1" parent="PbLQyDcfiBEk4vMYMfuu-35">
          <mxGeometry x="90" width="80" height="42" as="geometry" />
        </mxCell>
        <mxCell id="PbLQyDcfiBEk4vMYMfuu-38" value="Kent" style="shape=partialRectangle;html=1;whiteSpace=wrap;connectable=0;fillColor=none;top=0;left=0;bottom=0;right=0;overflow=hidden;pointerEvents=1;" vertex="1" parent="PbLQyDcfiBEk4vMYMfuu-35">
          <mxGeometry x="170" width="100" height="42" as="geometry" />
        </mxCell>
        <mxCell id="PbLQyDcfiBEk4vMYMfuu-61" style="shape=partialRectangle;html=1;whiteSpace=wrap;connectable=0;fillColor=none;top=0;left=0;bottom=0;right=0;overflow=hidden;pointerEvents=1;" vertex="1" parent="PbLQyDcfiBEk4vMYMfuu-35">
          <mxGeometry x="270" width="100" height="42" as="geometry" />
        </mxCell>
        <mxCell id="PbLQyDcfiBEk4vMYMfuu-65" style="shape=partialRectangle;html=1;whiteSpace=wrap;connectable=0;fillColor=none;top=0;left=0;bottom=0;right=0;overflow=hidden;pointerEvents=1;" vertex="1" parent="PbLQyDcfiBEk4vMYMfuu-35">
          <mxGeometry x="370" width="100" height="42" as="geometry" />
        </mxCell>
        <mxCell id="PbLQyDcfiBEk4vMYMfuu-69" style="shape=partialRectangle;html=1;whiteSpace=wrap;connectable=0;fillColor=none;top=0;left=0;bottom=0;right=0;overflow=hidden;pointerEvents=1;" vertex="1" parent="PbLQyDcfiBEk4vMYMfuu-35">
          <mxGeometry x="470" width="100" height="42" as="geometry" />
        </mxCell>
        <mxCell id="PbLQyDcfiBEk4vMYMfuu-73" style="shape=partialRectangle;html=1;whiteSpace=wrap;connectable=0;fillColor=none;top=0;left=0;bottom=0;right=0;overflow=hidden;pointerEvents=1;" vertex="1" parent="PbLQyDcfiBEk4vMYMfuu-35">
          <mxGeometry x="570" width="100" height="42" as="geometry" />
        </mxCell>
        <mxCell id="PbLQyDcfiBEk4vMYMfuu-77" style="shape=partialRectangle;html=1;whiteSpace=wrap;connectable=0;fillColor=none;top=0;left=0;bottom=0;right=0;overflow=hidden;pointerEvents=1;" vertex="1" parent="PbLQyDcfiBEk4vMYMfuu-35">
          <mxGeometry x="670" width="100" height="42" as="geometry" />
        </mxCell>
        <mxCell id="PbLQyDcfiBEk4vMYMfuu-39" value="" style="shape=partialRectangle;html=1;whiteSpace=wrap;collapsible=0;dropTarget=0;pointerEvents=0;fillColor=none;top=0;left=0;bottom=0;right=0;points=[[0,0.5],[1,0.5]];portConstraint=eastwest;" vertex="1" parent="PbLQyDcfiBEk4vMYMfuu-30">
          <mxGeometry y="105" width="770" height="43" as="geometry" />
        </mxCell>
        <mxCell id="PbLQyDcfiBEk4vMYMfuu-40" value="2" style="shape=partialRectangle;html=1;whiteSpace=wrap;connectable=0;fillColor=none;top=0;left=0;bottom=0;right=0;overflow=hidden;pointerEvents=1;" vertex="1" parent="PbLQyDcfiBEk4vMYMfuu-39">
          <mxGeometry width="90" height="43" as="geometry" />
        </mxCell>
        <mxCell id="PbLQyDcfiBEk4vMYMfuu-41" value="John" style="shape=partialRectangle;html=1;whiteSpace=wrap;connectable=0;fillColor=none;top=0;left=0;bottom=0;right=0;overflow=hidden;pointerEvents=1;" vertex="1" parent="PbLQyDcfiBEk4vMYMfuu-39">
          <mxGeometry x="90" width="80" height="43" as="geometry" />
        </mxCell>
        <mxCell id="PbLQyDcfiBEk4vMYMfuu-42" value="Smith" style="shape=partialRectangle;html=1;whiteSpace=wrap;connectable=0;fillColor=none;top=0;left=0;bottom=0;right=0;overflow=hidden;pointerEvents=1;" vertex="1" parent="PbLQyDcfiBEk4vMYMfuu-39">
          <mxGeometry x="170" width="100" height="43" as="geometry" />
        </mxCell>
        <mxCell id="PbLQyDcfiBEk4vMYMfuu-62" style="shape=partialRectangle;html=1;whiteSpace=wrap;connectable=0;fillColor=none;top=0;left=0;bottom=0;right=0;overflow=hidden;pointerEvents=1;" vertex="1" parent="PbLQyDcfiBEk4vMYMfuu-39">
          <mxGeometry x="270" width="100" height="43" as="geometry" />
        </mxCell>
        <mxCell id="PbLQyDcfiBEk4vMYMfuu-66" style="shape=partialRectangle;html=1;whiteSpace=wrap;connectable=0;fillColor=none;top=0;left=0;bottom=0;right=0;overflow=hidden;pointerEvents=1;" vertex="1" parent="PbLQyDcfiBEk4vMYMfuu-39">
          <mxGeometry x="370" width="100" height="43" as="geometry" />
        </mxCell>
        <mxCell id="PbLQyDcfiBEk4vMYMfuu-70" style="shape=partialRectangle;html=1;whiteSpace=wrap;connectable=0;fillColor=none;top=0;left=0;bottom=0;right=0;overflow=hidden;pointerEvents=1;" vertex="1" parent="PbLQyDcfiBEk4vMYMfuu-39">
          <mxGeometry x="470" width="100" height="43" as="geometry" />
        </mxCell>
        <mxCell id="PbLQyDcfiBEk4vMYMfuu-74" style="shape=partialRectangle;html=1;whiteSpace=wrap;connectable=0;fillColor=none;top=0;left=0;bottom=0;right=0;overflow=hidden;pointerEvents=1;" vertex="1" parent="PbLQyDcfiBEk4vMYMfuu-39">
          <mxGeometry x="570" width="100" height="43" as="geometry" />
        </mxCell>
        <mxCell id="PbLQyDcfiBEk4vMYMfuu-78" style="shape=partialRectangle;html=1;whiteSpace=wrap;connectable=0;fillColor=none;top=0;left=0;bottom=0;right=0;overflow=hidden;pointerEvents=1;" vertex="1" parent="PbLQyDcfiBEk4vMYMfuu-39">
          <mxGeometry x="670" width="100" height="43" as="geometry" />
        </mxCell>
        <mxCell id="PbLQyDcfiBEk4vMYMfuu-56" style="shape=partialRectangle;html=1;whiteSpace=wrap;collapsible=0;dropTarget=0;pointerEvents=0;fillColor=none;top=0;left=0;bottom=0;right=0;points=[[0,0.5],[1,0.5]];portConstraint=eastwest;" vertex="1" parent="PbLQyDcfiBEk4vMYMfuu-30">
          <mxGeometry y="148" width="770" height="42" as="geometry" />
        </mxCell>
        <mxCell id="PbLQyDcfiBEk4vMYMfuu-57" value="3" style="shape=partialRectangle;html=1;whiteSpace=wrap;connectable=0;fillColor=none;top=0;left=0;bottom=0;right=0;overflow=hidden;pointerEvents=1;" vertex="1" parent="PbLQyDcfiBEk4vMYMfuu-56">
          <mxGeometry width="90" height="42" as="geometry" />
        </mxCell>
        <mxCell id="PbLQyDcfiBEk4vMYMfuu-58" value="Cody" style="shape=partialRectangle;html=1;whiteSpace=wrap;connectable=0;fillColor=none;top=0;left=0;bottom=0;right=0;overflow=hidden;pointerEvents=1;" vertex="1" parent="PbLQyDcfiBEk4vMYMfuu-56">
          <mxGeometry x="90" width="80" height="42" as="geometry" />
        </mxCell>
        <mxCell id="PbLQyDcfiBEk4vMYMfuu-59" value="Kent" style="shape=partialRectangle;html=1;whiteSpace=wrap;connectable=0;fillColor=none;top=0;left=0;bottom=0;right=0;overflow=hidden;pointerEvents=1;" vertex="1" parent="PbLQyDcfiBEk4vMYMfuu-56">
          <mxGeometry x="170" width="100" height="42" as="geometry" />
        </mxCell>
        <mxCell id="PbLQyDcfiBEk4vMYMfuu-63" style="shape=partialRectangle;html=1;whiteSpace=wrap;connectable=0;fillColor=none;top=0;left=0;bottom=0;right=0;overflow=hidden;pointerEvents=1;" vertex="1" parent="PbLQyDcfiBEk4vMYMfuu-56">
          <mxGeometry x="270" width="100" height="42" as="geometry" />
        </mxCell>
        <mxCell id="PbLQyDcfiBEk4vMYMfuu-67" style="shape=partialRectangle;html=1;whiteSpace=wrap;connectable=0;fillColor=none;top=0;left=0;bottom=0;right=0;overflow=hidden;pointerEvents=1;" vertex="1" parent="PbLQyDcfiBEk4vMYMfuu-56">
          <mxGeometry x="370" width="100" height="42" as="geometry" />
        </mxCell>
        <mxCell id="PbLQyDcfiBEk4vMYMfuu-71" style="shape=partialRectangle;html=1;whiteSpace=wrap;connectable=0;fillColor=none;top=0;left=0;bottom=0;right=0;overflow=hidden;pointerEvents=1;" vertex="1" parent="PbLQyDcfiBEk4vMYMfuu-56">
          <mxGeometry x="470" width="100" height="42" as="geometry" />
        </mxCell>
        <mxCell id="PbLQyDcfiBEk4vMYMfuu-75" style="shape=partialRectangle;html=1;whiteSpace=wrap;connectable=0;fillColor=none;top=0;left=0;bottom=0;right=0;overflow=hidden;pointerEvents=1;" vertex="1" parent="PbLQyDcfiBEk4vMYMfuu-56">
          <mxGeometry x="570" width="100" height="42" as="geometry" />
        </mxCell>
        <mxCell id="PbLQyDcfiBEk4vMYMfuu-79" style="shape=partialRectangle;html=1;whiteSpace=wrap;connectable=0;fillColor=none;top=0;left=0;bottom=0;right=0;overflow=hidden;pointerEvents=1;" vertex="1" parent="PbLQyDcfiBEk4vMYMfuu-56">
          <mxGeometry x="670" width="100" height="42" as="geometry" />
        </mxCell>
        <mxCell id="PbLQyDcfiBEk4vMYMfuu-80" value="LibraryCards" style="shape=table;startSize=30;container=1;collapsible=1;childLayout=tableLayout;fixedRows=1;rowLines=0;fontStyle=1;align=center;resizeLast=1;labelBackgroundColor=#D8FF6B;" vertex="1" parent="1">
          <mxGeometry x="240" y="320" width="190" height="130" as="geometry" />
        </mxCell>
        <mxCell id="PbLQyDcfiBEk4vMYMfuu-81" value="" style="shape=partialRectangle;collapsible=0;dropTarget=0;pointerEvents=0;fillColor=none;top=0;left=0;bottom=1;right=0;points=[[0,0.5],[1,0.5]];portConstraint=eastwest;" vertex="1" parent="PbLQyDcfiBEk4vMYMfuu-80">
          <mxGeometry y="30" width="190" height="30" as="geometry" />
        </mxCell>
        <mxCell id="PbLQyDcfiBEk4vMYMfuu-82" value="PK" style="shape=partialRectangle;connectable=0;fillColor=none;top=0;left=0;bottom=0;right=0;fontStyle=1;overflow=hidden;" vertex="1" parent="PbLQyDcfiBEk4vMYMfuu-81">
          <mxGeometry width="30" height="30" as="geometry" />
        </mxCell>
        <mxCell id="PbLQyDcfiBEk4vMYMfuu-83" value="LibraryCardId" style="shape=partialRectangle;connectable=0;fillColor=none;top=0;left=0;bottom=0;right=0;align=left;spacingLeft=6;fontStyle=5;overflow=hidden;" vertex="1" parent="PbLQyDcfiBEk4vMYMfuu-81">
          <mxGeometry x="30" width="160" height="30" as="geometry" />
        </mxCell>
        <mxCell id="PbLQyDcfiBEk4vMYMfuu-84" value="" style="shape=partialRectangle;collapsible=0;dropTarget=0;pointerEvents=0;fillColor=none;top=0;left=0;bottom=0;right=0;points=[[0,0.5],[1,0.5]];portConstraint=eastwest;" vertex="1" parent="PbLQyDcfiBEk4vMYMfuu-80">
          <mxGeometry y="60" width="190" height="30" as="geometry" />
        </mxCell>
        <mxCell id="PbLQyDcfiBEk4vMYMfuu-85" value="" style="shape=partialRectangle;connectable=0;fillColor=none;top=0;left=0;bottom=0;right=0;editable=1;overflow=hidden;" vertex="1" parent="PbLQyDcfiBEk4vMYMfuu-84">
          <mxGeometry width="30" height="30" as="geometry" />
        </mxCell>
        <mxCell id="PbLQyDcfiBEk4vMYMfuu-86" value="CardNumber" style="shape=partialRectangle;connectable=0;fillColor=none;top=0;left=0;bottom=0;right=0;align=left;spacingLeft=6;overflow=hidden;" vertex="1" parent="PbLQyDcfiBEk4vMYMfuu-84">
          <mxGeometry x="30" width="160" height="30" as="geometry" />
        </mxCell>
        <mxCell id="PbLQyDcfiBEk4vMYMfuu-87" value="" style="shape=partialRectangle;collapsible=0;dropTarget=0;pointerEvents=0;fillColor=none;top=0;left=0;bottom=0;right=0;points=[[0,0.5],[1,0.5]];portConstraint=eastwest;" vertex="1" parent="PbLQyDcfiBEk4vMYMfuu-80">
          <mxGeometry y="90" width="190" height="30" as="geometry" />
        </mxCell>
        <mxCell id="PbLQyDcfiBEk4vMYMfuu-88" value="" style="shape=partialRectangle;connectable=0;fillColor=none;top=0;left=0;bottom=0;right=0;editable=1;overflow=hidden;" vertex="1" parent="PbLQyDcfiBEk4vMYMfuu-87">
          <mxGeometry width="30" height="30" as="geometry" />
        </mxCell>
        <mxCell id="PbLQyDcfiBEk4vMYMfuu-89" value="IsActive(Boolean)" style="shape=partialRectangle;connectable=0;fillColor=none;top=0;left=0;bottom=0;right=0;align=left;spacingLeft=6;overflow=hidden;" vertex="1" parent="PbLQyDcfiBEk4vMYMfuu-87">
          <mxGeometry x="30" width="160" height="30" as="geometry" />
        </mxCell>
        <mxCell id="PbLQyDcfiBEk4vMYMfuu-93" value="LibraryCard Table" style="shape=table;startSize=30;container=1;collapsible=0;childLayout=tableLayout;fontStyle=1;align=center;pointerEvents=1;labelBackgroundColor=#D8FF6B;" vertex="1" parent="1">
          <mxGeometry x="200" y="690" width="260" height="150" as="geometry" />
        </mxCell>
        <mxCell id="PbLQyDcfiBEk4vMYMfuu-94" value="" style="shape=partialRectangle;html=1;whiteSpace=wrap;collapsible=0;dropTarget=0;pointerEvents=0;fillColor=none;top=0;left=0;bottom=0;right=0;points=[[0,0.5],[1,0.5]];portConstraint=eastwest;" vertex="1" parent="PbLQyDcfiBEk4vMYMfuu-93">
          <mxGeometry y="30" width="260" height="40" as="geometry" />
        </mxCell>
        <mxCell id="PbLQyDcfiBEk4vMYMfuu-95" value="LibraryCardId" style="shape=partialRectangle;html=1;whiteSpace=wrap;connectable=0;fillColor=none;top=0;left=0;bottom=0;right=0;overflow=hidden;pointerEvents=1;" vertex="1" parent="PbLQyDcfiBEk4vMYMfuu-94">
          <mxGeometry width="87" height="40" as="geometry" />
        </mxCell>
        <mxCell id="PbLQyDcfiBEk4vMYMfuu-96" value="CardNumber" style="shape=partialRectangle;html=1;whiteSpace=wrap;connectable=0;fillColor=none;top=0;left=0;bottom=0;right=0;overflow=hidden;pointerEvents=1;" vertex="1" parent="PbLQyDcfiBEk4vMYMfuu-94">
          <mxGeometry x="87" width="86" height="40" as="geometry" />
        </mxCell>
        <mxCell id="PbLQyDcfiBEk4vMYMfuu-97" value="IsActive" style="shape=partialRectangle;html=1;whiteSpace=wrap;connectable=0;fillColor=none;top=0;left=0;bottom=0;right=0;overflow=hidden;pointerEvents=1;" vertex="1" parent="PbLQyDcfiBEk4vMYMfuu-94">
          <mxGeometry x="173" width="87" height="40" as="geometry" />
        </mxCell>
        <mxCell id="PbLQyDcfiBEk4vMYMfuu-98" value="" style="shape=partialRectangle;html=1;whiteSpace=wrap;collapsible=0;dropTarget=0;pointerEvents=0;fillColor=none;top=0;left=0;bottom=0;right=0;points=[[0,0.5],[1,0.5]];portConstraint=eastwest;" vertex="1" parent="PbLQyDcfiBEk4vMYMfuu-93">
          <mxGeometry y="70" width="260" height="40" as="geometry" />
        </mxCell>
        <mxCell id="PbLQyDcfiBEk4vMYMfuu-99" value="1" style="shape=partialRectangle;html=1;whiteSpace=wrap;connectable=0;fillColor=none;top=0;left=0;bottom=0;right=0;overflow=hidden;pointerEvents=1;" vertex="1" parent="PbLQyDcfiBEk4vMYMfuu-98">
          <mxGeometry width="87" height="40" as="geometry" />
        </mxCell>
        <mxCell id="PbLQyDcfiBEk4vMYMfuu-100" value="84620554" style="shape=partialRectangle;html=1;whiteSpace=wrap;connectable=0;fillColor=none;top=0;left=0;bottom=0;right=0;overflow=hidden;pointerEvents=1;" vertex="1" parent="PbLQyDcfiBEk4vMYMfuu-98">
          <mxGeometry x="87" width="86" height="40" as="geometry" />
        </mxCell>
        <mxCell id="PbLQyDcfiBEk4vMYMfuu-101" value="False" style="shape=partialRectangle;html=1;whiteSpace=wrap;connectable=0;fillColor=none;top=0;left=0;bottom=0;right=0;overflow=hidden;pointerEvents=1;" vertex="1" parent="PbLQyDcfiBEk4vMYMfuu-98">
          <mxGeometry x="173" width="87" height="40" as="geometry" />
        </mxCell>
        <mxCell id="PbLQyDcfiBEk4vMYMfuu-102" value="" style="shape=partialRectangle;html=1;whiteSpace=wrap;collapsible=0;dropTarget=0;pointerEvents=0;fillColor=none;top=0;left=0;bottom=0;right=0;points=[[0,0.5],[1,0.5]];portConstraint=eastwest;" vertex="1" parent="PbLQyDcfiBEk4vMYMfuu-93">
          <mxGeometry y="110" width="260" height="40" as="geometry" />
        </mxCell>
        <mxCell id="PbLQyDcfiBEk4vMYMfuu-103" value="2" style="shape=partialRectangle;html=1;whiteSpace=wrap;connectable=0;fillColor=none;top=0;left=0;bottom=0;right=0;overflow=hidden;pointerEvents=1;" vertex="1" parent="PbLQyDcfiBEk4vMYMfuu-102">
          <mxGeometry width="87" height="40" as="geometry" />
        </mxCell>
        <mxCell id="PbLQyDcfiBEk4vMYMfuu-104" value="23945445" style="shape=partialRectangle;html=1;whiteSpace=wrap;connectable=0;fillColor=none;top=0;left=0;bottom=0;right=0;overflow=hidden;pointerEvents=1;" vertex="1" parent="PbLQyDcfiBEk4vMYMfuu-102">
          <mxGeometry x="87" width="86" height="40" as="geometry" />
        </mxCell>
        <mxCell id="PbLQyDcfiBEk4vMYMfuu-105" value="True" style="shape=partialRectangle;html=1;whiteSpace=wrap;connectable=0;fillColor=none;top=0;left=0;bottom=0;right=0;overflow=hidden;pointerEvents=1;" vertex="1" parent="PbLQyDcfiBEk4vMYMfuu-102">
          <mxGeometry x="173" width="87" height="40" as="geometry" />
        </mxCell>
        <mxCell id="PbLQyDcfiBEk4vMYMfuu-106" value="CustomerCards (Junction Table)" style="shape=table;startSize=30;container=1;collapsible=1;childLayout=tableLayout;fixedRows=1;rowLines=0;fontStyle=1;align=center;resizeLast=1;" vertex="1" parent="1">
          <mxGeometry x="20" y="320" width="190" height="110" as="geometry" />
        </mxCell>
        <mxCell id="PbLQyDcfiBEk4vMYMfuu-107" value="" style="shape=partialRectangle;collapsible=0;dropTarget=0;pointerEvents=0;fillColor=none;top=0;left=0;bottom=0;right=0;points=[[0,0.5],[1,0.5]];portConstraint=eastwest;" vertex="1" parent="PbLQyDcfiBEk4vMYMfuu-106">
          <mxGeometry y="30" width="190" height="30" as="geometry" />
        </mxCell>
        <mxCell id="PbLQyDcfiBEk4vMYMfuu-108" value="PK,FK1" style="shape=partialRectangle;connectable=0;fillColor=none;top=0;left=0;bottom=0;right=0;fontStyle=1;overflow=hidden;" vertex="1" parent="PbLQyDcfiBEk4vMYMfuu-107">
          <mxGeometry width="60" height="30" as="geometry" />
        </mxCell>
        <mxCell id="PbLQyDcfiBEk4vMYMfuu-109" value="CustomerId" style="shape=partialRectangle;connectable=0;fillColor=none;top=0;left=0;bottom=0;right=0;align=left;spacingLeft=6;fontStyle=5;overflow=hidden;" vertex="1" parent="PbLQyDcfiBEk4vMYMfuu-107">
          <mxGeometry x="60" width="130" height="30" as="geometry" />
        </mxCell>
        <mxCell id="PbLQyDcfiBEk4vMYMfuu-110" value="" style="shape=partialRectangle;collapsible=0;dropTarget=0;pointerEvents=0;fillColor=none;top=0;left=0;bottom=1;right=0;points=[[0,0.5],[1,0.5]];portConstraint=eastwest;" vertex="1" parent="PbLQyDcfiBEk4vMYMfuu-106">
          <mxGeometry y="60" width="190" height="40" as="geometry" />
        </mxCell>
        <mxCell id="PbLQyDcfiBEk4vMYMfuu-111" value="PK,FK2" style="shape=partialRectangle;connectable=0;fillColor=none;top=0;left=0;bottom=0;right=0;fontStyle=1;overflow=hidden;" vertex="1" parent="PbLQyDcfiBEk4vMYMfuu-110">
          <mxGeometry width="60" height="40" as="geometry" />
        </mxCell>
        <mxCell id="PbLQyDcfiBEk4vMYMfuu-112" value="LibraryCardId" style="shape=partialRectangle;connectable=0;fillColor=none;top=0;left=0;bottom=0;right=0;align=left;spacingLeft=6;fontStyle=5;overflow=hidden;" vertex="1" parent="PbLQyDcfiBEk4vMYMfuu-110">
          <mxGeometry x="60" width="130" height="40" as="geometry" />
        </mxCell>
        <mxCell id="PbLQyDcfiBEk4vMYMfuu-119" value="CustomerCards Table" style="shape=table;startSize=30;container=1;collapsible=0;childLayout=tableLayout;fontStyle=1;align=center;pointerEvents=1;labelBackgroundColor=#99FFFF;" vertex="1" parent="1">
          <mxGeometry x="10" y="690" width="173" height="150" as="geometry" />
        </mxCell>
        <mxCell id="PbLQyDcfiBEk4vMYMfuu-120" value="" style="shape=partialRectangle;html=1;whiteSpace=wrap;collapsible=0;dropTarget=0;pointerEvents=0;fillColor=none;top=0;left=0;bottom=0;right=0;points=[[0,0.5],[1,0.5]];portConstraint=eastwest;" vertex="1" parent="PbLQyDcfiBEk4vMYMfuu-119">
          <mxGeometry y="30" width="173" height="44" as="geometry" />
        </mxCell>
        <mxCell id="PbLQyDcfiBEk4vMYMfuu-121" value="CustomerId" style="shape=partialRectangle;html=1;whiteSpace=wrap;connectable=0;fillColor=none;top=0;left=0;bottom=0;right=0;overflow=hidden;pointerEvents=1;" vertex="1" parent="PbLQyDcfiBEk4vMYMfuu-120">
          <mxGeometry width="87" height="44" as="geometry" />
        </mxCell>
        <mxCell id="PbLQyDcfiBEk4vMYMfuu-122" value="LibraryCardId" style="shape=partialRectangle;html=1;whiteSpace=wrap;connectable=0;fillColor=none;top=0;left=0;bottom=0;right=0;overflow=hidden;pointerEvents=1;" vertex="1" parent="PbLQyDcfiBEk4vMYMfuu-120">
          <mxGeometry x="87" width="86" height="44" as="geometry" />
        </mxCell>
        <mxCell id="PbLQyDcfiBEk4vMYMfuu-124" value="" style="shape=partialRectangle;html=1;whiteSpace=wrap;collapsible=0;dropTarget=0;pointerEvents=0;fillColor=none;top=0;left=0;bottom=0;right=0;points=[[0,0.5],[1,0.5]];portConstraint=eastwest;" vertex="1" parent="PbLQyDcfiBEk4vMYMfuu-119">
          <mxGeometry y="74" width="173" height="32" as="geometry" />
        </mxCell>
        <mxCell id="PbLQyDcfiBEk4vMYMfuu-125" value="2" style="shape=partialRectangle;html=1;whiteSpace=wrap;connectable=0;fillColor=none;top=0;left=0;bottom=0;right=0;overflow=hidden;pointerEvents=1;" vertex="1" parent="PbLQyDcfiBEk4vMYMfuu-124">
          <mxGeometry width="87" height="32" as="geometry" />
        </mxCell>
        <mxCell id="PbLQyDcfiBEk4vMYMfuu-126" value="1" style="shape=partialRectangle;html=1;whiteSpace=wrap;connectable=0;fillColor=none;top=0;left=0;bottom=0;right=0;overflow=hidden;pointerEvents=1;" vertex="1" parent="PbLQyDcfiBEk4vMYMfuu-124">
          <mxGeometry x="87" width="86" height="32" as="geometry" />
        </mxCell>
        <mxCell id="PbLQyDcfiBEk4vMYMfuu-128" value="" style="shape=partialRectangle;html=1;whiteSpace=wrap;collapsible=0;dropTarget=0;pointerEvents=0;fillColor=none;top=0;left=0;bottom=0;right=0;points=[[0,0.5],[1,0.5]];portConstraint=eastwest;" vertex="1" parent="PbLQyDcfiBEk4vMYMfuu-119">
          <mxGeometry y="106" width="173" height="44" as="geometry" />
        </mxCell>
        <mxCell id="PbLQyDcfiBEk4vMYMfuu-129" value="1" style="shape=partialRectangle;html=1;whiteSpace=wrap;connectable=0;fillColor=none;top=0;left=0;bottom=0;right=0;overflow=hidden;pointerEvents=1;" vertex="1" parent="PbLQyDcfiBEk4vMYMfuu-128">
          <mxGeometry width="87" height="44" as="geometry" />
        </mxCell>
        <mxCell id="PbLQyDcfiBEk4vMYMfuu-130" value="2" style="shape=partialRectangle;html=1;whiteSpace=wrap;connectable=0;fillColor=none;top=0;left=0;bottom=0;right=0;overflow=hidden;pointerEvents=1;" vertex="1" parent="PbLQyDcfiBEk4vMYMfuu-128">
          <mxGeometry x="87" width="86" height="44" as="geometry" />
        </mxCell>
        <mxCell id="PbLQyDcfiBEk4vMYMfuu-143" value="Books" style="shape=table;startSize=30;container=1;collapsible=1;childLayout=tableLayout;fixedRows=1;rowLines=0;fontStyle=1;align=center;resizeLast=1;labelBackgroundColor=#9C63FF;fontColor=#F5F5F5;" vertex="1" parent="1">
          <mxGeometry x="440" y="10" width="180" height="160" as="geometry" />
        </mxCell>
        <mxCell id="PbLQyDcfiBEk4vMYMfuu-144" value="" style="shape=partialRectangle;collapsible=0;dropTarget=0;pointerEvents=0;fillColor=none;top=0;left=0;bottom=1;right=0;points=[[0,0.5],[1,0.5]];portConstraint=eastwest;" vertex="1" parent="PbLQyDcfiBEk4vMYMfuu-143">
          <mxGeometry y="30" width="180" height="30" as="geometry" />
        </mxCell>
        <mxCell id="PbLQyDcfiBEk4vMYMfuu-145" value="PK" style="shape=partialRectangle;connectable=0;fillColor=none;top=0;left=0;bottom=0;right=0;fontStyle=1;overflow=hidden;" vertex="1" parent="PbLQyDcfiBEk4vMYMfuu-144">
          <mxGeometry width="30" height="30" as="geometry" />
        </mxCell>
        <mxCell id="PbLQyDcfiBEk4vMYMfuu-146" value="BookId" style="shape=partialRectangle;connectable=0;fillColor=none;top=0;left=0;bottom=0;right=0;align=left;spacingLeft=6;fontStyle=5;overflow=hidden;" vertex="1" parent="PbLQyDcfiBEk4vMYMfuu-144">
          <mxGeometry x="30" width="150" height="30" as="geometry" />
        </mxCell>
        <mxCell id="PbLQyDcfiBEk4vMYMfuu-147" value="" style="shape=partialRectangle;collapsible=0;dropTarget=0;pointerEvents=0;fillColor=none;top=0;left=0;bottom=0;right=0;points=[[0,0.5],[1,0.5]];portConstraint=eastwest;" vertex="1" parent="PbLQyDcfiBEk4vMYMfuu-143">
          <mxGeometry y="60" width="180" height="30" as="geometry" />
        </mxCell>
        <mxCell id="PbLQyDcfiBEk4vMYMfuu-148" value="" style="shape=partialRectangle;connectable=0;fillColor=none;top=0;left=0;bottom=0;right=0;editable=1;overflow=hidden;" vertex="1" parent="PbLQyDcfiBEk4vMYMfuu-147">
          <mxGeometry width="30" height="30" as="geometry" />
        </mxCell>
        <mxCell id="PbLQyDcfiBEk4vMYMfuu-149" value="Title" style="shape=partialRectangle;connectable=0;fillColor=none;top=0;left=0;bottom=0;right=0;align=left;spacingLeft=6;overflow=hidden;" vertex="1" parent="PbLQyDcfiBEk4vMYMfuu-147">
          <mxGeometry x="30" width="150" height="30" as="geometry" />
        </mxCell>
        <mxCell id="PbLQyDcfiBEk4vMYMfuu-150" value="" style="shape=partialRectangle;collapsible=0;dropTarget=0;pointerEvents=0;fillColor=none;top=0;left=0;bottom=0;right=0;points=[[0,0.5],[1,0.5]];portConstraint=eastwest;" vertex="1" parent="PbLQyDcfiBEk4vMYMfuu-143">
          <mxGeometry y="90" width="180" height="30" as="geometry" />
        </mxCell>
        <mxCell id="PbLQyDcfiBEk4vMYMfuu-151" value="" style="shape=partialRectangle;connectable=0;fillColor=none;top=0;left=0;bottom=0;right=0;editable=1;overflow=hidden;" vertex="1" parent="PbLQyDcfiBEk4vMYMfuu-150">
          <mxGeometry width="30" height="30" as="geometry" />
        </mxCell>
        <mxCell id="PbLQyDcfiBEk4vMYMfuu-152" value="Author" style="shape=partialRectangle;connectable=0;fillColor=none;top=0;left=0;bottom=0;right=0;align=left;spacingLeft=6;overflow=hidden;" vertex="1" parent="PbLQyDcfiBEk4vMYMfuu-150">
          <mxGeometry x="30" width="150" height="30" as="geometry" />
        </mxCell>
        <mxCell id="PbLQyDcfiBEk4vMYMfuu-153" value="" style="shape=partialRectangle;collapsible=0;dropTarget=0;pointerEvents=0;fillColor=none;top=0;left=0;bottom=0;right=0;points=[[0,0.5],[1,0.5]];portConstraint=eastwest;" vertex="1" parent="PbLQyDcfiBEk4vMYMfuu-143">
          <mxGeometry y="120" width="180" height="30" as="geometry" />
        </mxCell>
        <mxCell id="PbLQyDcfiBEk4vMYMfuu-154" value="" style="shape=partialRectangle;connectable=0;fillColor=none;top=0;left=0;bottom=0;right=0;editable=1;overflow=hidden;" vertex="1" parent="PbLQyDcfiBEk4vMYMfuu-153">
          <mxGeometry width="30" height="30" as="geometry" />
        </mxCell>
        <mxCell id="PbLQyDcfiBEk4vMYMfuu-155" value="Description" style="shape=partialRectangle;connectable=0;fillColor=none;top=0;left=0;bottom=0;right=0;align=left;spacingLeft=6;overflow=hidden;" vertex="1" parent="PbLQyDcfiBEk4vMYMfuu-153">
          <mxGeometry x="30" width="150" height="30" as="geometry" />
        </mxCell>
        <mxCell id="PbLQyDcfiBEk4vMYMfuu-156" value="LentBooks (Junction Table)" style="shape=table;startSize=30;container=1;collapsible=1;childLayout=tableLayout;fixedRows=1;rowLines=0;fontStyle=1;align=center;resizeLast=1;labelBackgroundColor=#53FF1F;" vertex="1" parent="1">
          <mxGeometry x="240" y="10" width="180" height="250" as="geometry" />
        </mxCell>
        <mxCell id="PbLQyDcfiBEk4vMYMfuu-157" value="" style="shape=partialRectangle;collapsible=0;dropTarget=0;pointerEvents=0;fillColor=none;top=0;left=0;bottom=1;right=0;points=[[0,0.5],[1,0.5]];portConstraint=eastwest;" vertex="1" parent="PbLQyDcfiBEk4vMYMfuu-156">
          <mxGeometry y="30" width="180" height="40" as="geometry" />
        </mxCell>
        <mxCell id="PbLQyDcfiBEk4vMYMfuu-158" value="PK" style="shape=partialRectangle;connectable=0;fillColor=none;top=0;left=0;bottom=0;right=0;fontStyle=1;overflow=hidden;" vertex="1" parent="PbLQyDcfiBEk4vMYMfuu-157">
          <mxGeometry width="30" height="40" as="geometry" />
        </mxCell>
        <mxCell id="PbLQyDcfiBEk4vMYMfuu-159" value="LentBookId" style="shape=partialRectangle;connectable=0;fillColor=none;top=0;left=0;bottom=0;right=0;align=left;spacingLeft=6;fontStyle=5;overflow=hidden;" vertex="1" parent="PbLQyDcfiBEk4vMYMfuu-157">
          <mxGeometry x="30" width="150" height="40" as="geometry" />
        </mxCell>
        <mxCell id="PbLQyDcfiBEk4vMYMfuu-160" value="" style="shape=partialRectangle;collapsible=0;dropTarget=0;pointerEvents=0;fillColor=none;top=0;left=0;bottom=0;right=0;points=[[0,0.5],[1,0.5]];portConstraint=eastwest;" vertex="1" parent="PbLQyDcfiBEk4vMYMfuu-156">
          <mxGeometry y="70" width="180" height="30" as="geometry" />
        </mxCell>
        <mxCell id="PbLQyDcfiBEk4vMYMfuu-161" value="FK" style="shape=partialRectangle;connectable=0;fillColor=none;top=0;left=0;bottom=0;right=0;editable=1;overflow=hidden;" vertex="1" parent="PbLQyDcfiBEk4vMYMfuu-160">
          <mxGeometry width="30" height="30" as="geometry" />
        </mxCell>
        <mxCell id="PbLQyDcfiBEk4vMYMfuu-162" value="CustomerId" style="shape=partialRectangle;connectable=0;fillColor=none;top=0;left=0;bottom=0;right=0;align=left;spacingLeft=6;overflow=hidden;" vertex="1" parent="PbLQyDcfiBEk4vMYMfuu-160">
          <mxGeometry x="30" width="150" height="30" as="geometry" />
        </mxCell>
        <mxCell id="PbLQyDcfiBEk4vMYMfuu-163" value="" style="shape=partialRectangle;collapsible=0;dropTarget=0;pointerEvents=0;fillColor=none;top=0;left=0;bottom=0;right=0;points=[[0,0.5],[1,0.5]];portConstraint=eastwest;" vertex="1" parent="PbLQyDcfiBEk4vMYMfuu-156">
          <mxGeometry y="100" width="180" height="30" as="geometry" />
        </mxCell>
        <mxCell id="PbLQyDcfiBEk4vMYMfuu-164" value="FK" style="shape=partialRectangle;connectable=0;fillColor=none;top=0;left=0;bottom=0;right=0;editable=1;overflow=hidden;" vertex="1" parent="PbLQyDcfiBEk4vMYMfuu-163">
          <mxGeometry width="30" height="30" as="geometry" />
        </mxCell>
        <mxCell id="PbLQyDcfiBEk4vMYMfuu-165" value="BookId" style="shape=partialRectangle;connectable=0;fillColor=none;top=0;left=0;bottom=0;right=0;align=left;spacingLeft=6;overflow=hidden;" vertex="1" parent="PbLQyDcfiBEk4vMYMfuu-163">
          <mxGeometry x="30" width="150" height="30" as="geometry" />
        </mxCell>
        <mxCell id="PbLQyDcfiBEk4vMYMfuu-166" value="" style="shape=partialRectangle;collapsible=0;dropTarget=0;pointerEvents=0;fillColor=none;top=0;left=0;bottom=0;right=0;points=[[0,0.5],[1,0.5]];portConstraint=eastwest;" vertex="1" parent="PbLQyDcfiBEk4vMYMfuu-156">
          <mxGeometry y="130" width="180" height="40" as="geometry" />
        </mxCell>
        <mxCell id="PbLQyDcfiBEk4vMYMfuu-167" value="" style="shape=partialRectangle;connectable=0;fillColor=none;top=0;left=0;bottom=0;right=0;editable=1;overflow=hidden;" vertex="1" parent="PbLQyDcfiBEk4vMYMfuu-166">
          <mxGeometry width="30" height="40" as="geometry" />
        </mxCell>
        <mxCell id="PbLQyDcfiBEk4vMYMfuu-168" value="HasReturned" style="shape=partialRectangle;connectable=0;fillColor=none;top=0;left=0;bottom=0;right=0;align=left;spacingLeft=6;overflow=hidden;" vertex="1" parent="PbLQyDcfiBEk4vMYMfuu-166">
          <mxGeometry x="30" width="150" height="40" as="geometry" />
        </mxCell>
        <mxCell id="PbLQyDcfiBEk4vMYMfuu-170" value="" style="shape=partialRectangle;collapsible=0;dropTarget=0;pointerEvents=0;fillColor=none;top=0;left=0;bottom=0;right=0;points=[[0,0.5],[1,0.5]];portConstraint=eastwest;" vertex="1" parent="PbLQyDcfiBEk4vMYMfuu-156">
          <mxGeometry y="170" width="180" height="20" as="geometry" />
        </mxCell>
        <mxCell id="PbLQyDcfiBEk4vMYMfuu-171" value="" style="shape=partialRectangle;connectable=0;fillColor=none;top=0;left=0;bottom=0;right=0;editable=1;overflow=hidden;" vertex="1" parent="PbLQyDcfiBEk4vMYMfuu-170">
          <mxGeometry width="30" height="20" as="geometry" />
        </mxCell>
        <mxCell id="PbLQyDcfiBEk4vMYMfuu-172" value="StartDate" style="shape=partialRectangle;connectable=0;fillColor=none;top=0;left=0;bottom=0;right=0;align=left;spacingLeft=6;overflow=hidden;" vertex="1" parent="PbLQyDcfiBEk4vMYMfuu-170">
          <mxGeometry x="30" width="150" height="20" as="geometry" />
        </mxCell>
        <mxCell id="PbLQyDcfiBEk4vMYMfuu-173" value="" style="shape=partialRectangle;collapsible=0;dropTarget=0;pointerEvents=0;fillColor=none;top=0;left=0;bottom=0;right=0;points=[[0,0.5],[1,0.5]];portConstraint=eastwest;" vertex="1" parent="PbLQyDcfiBEk4vMYMfuu-156">
          <mxGeometry y="190" width="180" height="30" as="geometry" />
        </mxCell>
        <mxCell id="PbLQyDcfiBEk4vMYMfuu-174" value="" style="shape=partialRectangle;connectable=0;fillColor=none;top=0;left=0;bottom=0;right=0;editable=1;overflow=hidden;" vertex="1" parent="PbLQyDcfiBEk4vMYMfuu-173">
          <mxGeometry width="30" height="30" as="geometry" />
        </mxCell>
        <mxCell id="PbLQyDcfiBEk4vMYMfuu-175" value="EndDate" style="shape=partialRectangle;connectable=0;fillColor=none;top=0;left=0;bottom=0;right=0;align=left;spacingLeft=6;overflow=hidden;" vertex="1" parent="PbLQyDcfiBEk4vMYMfuu-173">
          <mxGeometry x="30" width="150" height="30" as="geometry" />
        </mxCell>
        <mxCell id="PbLQyDcfiBEk4vMYMfuu-179" value="Books Table" style="shape=table;startSize=30;container=1;collapsible=0;childLayout=tableLayout;fontStyle=1;align=center;pointerEvents=1;labelBackgroundColor=#9C63FF;fontColor=#F5F5F5;" vertex="1" parent="1">
          <mxGeometry x="470" y="690" width="370" height="190" as="geometry" />
        </mxCell>
        <mxCell id="PbLQyDcfiBEk4vMYMfuu-180" value="" style="shape=partialRectangle;html=1;whiteSpace=wrap;collapsible=0;dropTarget=0;pointerEvents=0;fillColor=none;top=0;left=0;bottom=0;right=0;points=[[0,0.5],[1,0.5]];portConstraint=eastwest;" vertex="1" parent="PbLQyDcfiBEk4vMYMfuu-179">
          <mxGeometry y="30" width="370" height="40" as="geometry" />
        </mxCell>
        <mxCell id="PbLQyDcfiBEk4vMYMfuu-181" value="BookI&lt;span style=&quot;white-space: pre&quot;&gt;	&lt;/span&gt;" style="shape=partialRectangle;html=1;whiteSpace=wrap;connectable=0;fillColor=none;top=0;left=0;bottom=0;right=0;overflow=hidden;pointerEvents=1;" vertex="1" parent="PbLQyDcfiBEk4vMYMfuu-180">
          <mxGeometry width="93" height="40" as="geometry" />
        </mxCell>
        <mxCell id="PbLQyDcfiBEk4vMYMfuu-182" value="Title" style="shape=partialRectangle;html=1;whiteSpace=wrap;connectable=0;fillColor=none;top=0;left=0;bottom=0;right=0;overflow=hidden;pointerEvents=1;" vertex="1" parent="PbLQyDcfiBEk4vMYMfuu-180">
          <mxGeometry x="93" width="92" height="40" as="geometry" />
        </mxCell>
        <mxCell id="PbLQyDcfiBEk4vMYMfuu-183" value="Author" style="shape=partialRectangle;html=1;whiteSpace=wrap;connectable=0;fillColor=none;top=0;left=0;bottom=0;right=0;overflow=hidden;pointerEvents=1;" vertex="1" parent="PbLQyDcfiBEk4vMYMfuu-180">
          <mxGeometry x="185" width="93" height="40" as="geometry" />
        </mxCell>
        <mxCell id="PbLQyDcfiBEk4vMYMfuu-196" value="Description" style="shape=partialRectangle;html=1;whiteSpace=wrap;connectable=0;fillColor=none;top=0;left=0;bottom=0;right=0;overflow=hidden;pointerEvents=1;" vertex="1" parent="PbLQyDcfiBEk4vMYMfuu-180">
          <mxGeometry x="278" width="92" height="40" as="geometry" />
        </mxCell>
        <mxCell id="PbLQyDcfiBEk4vMYMfuu-184" value="" style="shape=partialRectangle;html=1;whiteSpace=wrap;collapsible=0;dropTarget=0;pointerEvents=0;fillColor=none;top=0;left=0;bottom=0;right=0;points=[[0,0.5],[1,0.5]];portConstraint=eastwest;" vertex="1" parent="PbLQyDcfiBEk4vMYMfuu-179">
          <mxGeometry y="70" width="370" height="40" as="geometry" />
        </mxCell>
        <mxCell id="PbLQyDcfiBEk4vMYMfuu-185" value="1" style="shape=partialRectangle;html=1;whiteSpace=wrap;connectable=0;fillColor=none;top=0;left=0;bottom=0;right=0;overflow=hidden;pointerEvents=1;" vertex="1" parent="PbLQyDcfiBEk4vMYMfuu-184">
          <mxGeometry width="93" height="40" as="geometry" />
        </mxCell>
        <mxCell id="PbLQyDcfiBEk4vMYMfuu-186" value="Hatchet" style="shape=partialRectangle;html=1;whiteSpace=wrap;connectable=0;fillColor=none;top=0;left=0;bottom=0;right=0;overflow=hidden;pointerEvents=1;" vertex="1" parent="PbLQyDcfiBEk4vMYMfuu-184">
          <mxGeometry x="93" width="92" height="40" as="geometry" />
        </mxCell>
        <mxCell id="PbLQyDcfiBEk4vMYMfuu-187" value="Gary P." style="shape=partialRectangle;html=1;whiteSpace=wrap;connectable=0;fillColor=none;top=0;left=0;bottom=0;right=0;overflow=hidden;pointerEvents=1;" vertex="1" parent="PbLQyDcfiBEk4vMYMfuu-184">
          <mxGeometry x="185" width="93" height="40" as="geometry" />
        </mxCell>
        <mxCell id="PbLQyDcfiBEk4vMYMfuu-197" style="shape=partialRectangle;html=1;whiteSpace=wrap;connectable=0;fillColor=none;top=0;left=0;bottom=0;right=0;overflow=hidden;pointerEvents=1;" vertex="1" parent="PbLQyDcfiBEk4vMYMfuu-184">
          <mxGeometry x="278" width="92" height="40" as="geometry" />
        </mxCell>
        <mxCell id="PbLQyDcfiBEk4vMYMfuu-188" value="" style="shape=partialRectangle;html=1;whiteSpace=wrap;collapsible=0;dropTarget=0;pointerEvents=0;fillColor=none;top=0;left=0;bottom=0;right=0;points=[[0,0.5],[1,0.5]];portConstraint=eastwest;" vertex="1" parent="PbLQyDcfiBEk4vMYMfuu-179">
          <mxGeometry y="110" width="370" height="40" as="geometry" />
        </mxCell>
        <mxCell id="PbLQyDcfiBEk4vMYMfuu-189" value="2" style="shape=partialRectangle;html=1;whiteSpace=wrap;connectable=0;fillColor=none;top=0;left=0;bottom=0;right=0;overflow=hidden;pointerEvents=1;" vertex="1" parent="PbLQyDcfiBEk4vMYMfuu-188">
          <mxGeometry width="93" height="40" as="geometry" />
        </mxCell>
        <mxCell id="PbLQyDcfiBEk4vMYMfuu-190" value="Freedom From The Known" style="shape=partialRectangle;html=1;whiteSpace=wrap;connectable=0;fillColor=none;top=0;left=0;bottom=0;right=0;overflow=hidden;pointerEvents=1;" vertex="1" parent="PbLQyDcfiBEk4vMYMfuu-188">
          <mxGeometry x="93" width="92" height="40" as="geometry" />
        </mxCell>
        <mxCell id="PbLQyDcfiBEk4vMYMfuu-191" value="Jiddu Krishnamurti" style="shape=partialRectangle;html=1;whiteSpace=wrap;connectable=0;fillColor=none;top=0;left=0;bottom=0;right=0;overflow=hidden;pointerEvents=1;" vertex="1" parent="PbLQyDcfiBEk4vMYMfuu-188">
          <mxGeometry x="185" width="93" height="40" as="geometry" />
        </mxCell>
        <mxCell id="PbLQyDcfiBEk4vMYMfuu-198" style="shape=partialRectangle;html=1;whiteSpace=wrap;connectable=0;fillColor=none;top=0;left=0;bottom=0;right=0;overflow=hidden;pointerEvents=1;" vertex="1" parent="PbLQyDcfiBEk4vMYMfuu-188">
          <mxGeometry x="278" width="92" height="40" as="geometry" />
        </mxCell>
        <mxCell id="PbLQyDcfiBEk4vMYMfuu-192" value="" style="shape=partialRectangle;html=1;whiteSpace=wrap;collapsible=0;dropTarget=0;pointerEvents=0;fillColor=none;top=0;left=0;bottom=0;right=0;points=[[0,0.5],[1,0.5]];portConstraint=eastwest;" vertex="1" parent="PbLQyDcfiBEk4vMYMfuu-179">
          <mxGeometry y="150" width="370" height="40" as="geometry" />
        </mxCell>
        <mxCell id="PbLQyDcfiBEk4vMYMfuu-193" value="3" style="shape=partialRectangle;html=1;whiteSpace=wrap;connectable=0;fillColor=none;top=0;left=0;bottom=0;right=0;overflow=hidden;pointerEvents=1;" vertex="1" parent="PbLQyDcfiBEk4vMYMfuu-192">
          <mxGeometry width="93" height="40" as="geometry" />
        </mxCell>
        <mxCell id="PbLQyDcfiBEk4vMYMfuu-194" value="The China Study&lt;span style=&quot;white-space: pre&quot;&gt;	&lt;/span&gt;" style="shape=partialRectangle;html=1;whiteSpace=wrap;connectable=0;fillColor=none;top=0;left=0;bottom=0;right=0;overflow=hidden;pointerEvents=1;" vertex="1" parent="PbLQyDcfiBEk4vMYMfuu-192">
          <mxGeometry x="93" width="92" height="40" as="geometry" />
        </mxCell>
        <mxCell id="PbLQyDcfiBEk4vMYMfuu-195" value="T. Coin Campbell" style="shape=partialRectangle;html=1;whiteSpace=wrap;connectable=0;fillColor=none;top=0;left=0;bottom=0;right=0;overflow=hidden;pointerEvents=1;" vertex="1" parent="PbLQyDcfiBEk4vMYMfuu-192">
          <mxGeometry x="185" width="93" height="40" as="geometry" />
        </mxCell>
        <mxCell id="PbLQyDcfiBEk4vMYMfuu-199" style="shape=partialRectangle;html=1;whiteSpace=wrap;connectable=0;fillColor=none;top=0;left=0;bottom=0;right=0;overflow=hidden;pointerEvents=1;" vertex="1" parent="PbLQyDcfiBEk4vMYMfuu-192">
          <mxGeometry x="278" width="92" height="40" as="geometry" />
        </mxCell>
        <mxCell id="PbLQyDcfiBEk4vMYMfuu-205" value="LentBooks Table" style="shape=table;startSize=30;container=1;collapsible=0;childLayout=tableLayout;fontStyle=1;align=center;pointerEvents=1;labelBackgroundColor=#53FF1F;" vertex="1" parent="1">
          <mxGeometry x="10" y="860" width="360" height="190" as="geometry" />
        </mxCell>
        <mxCell id="PbLQyDcfiBEk4vMYMfuu-206" value="" style="shape=partialRectangle;html=1;whiteSpace=wrap;collapsible=0;dropTarget=0;pointerEvents=0;fillColor=none;top=0;left=0;bottom=0;right=0;points=[[0,0.5],[1,0.5]];portConstraint=eastwest;" vertex="1" parent="PbLQyDcfiBEk4vMYMfuu-205">
          <mxGeometry y="30" width="360" height="40" as="geometry" />
        </mxCell>
        <mxCell id="PbLQyDcfiBEk4vMYMfuu-207" value="LentBookId" style="shape=partialRectangle;html=1;whiteSpace=wrap;connectable=0;fillColor=none;top=0;left=0;bottom=0;right=0;overflow=hidden;pointerEvents=1;" vertex="1" parent="PbLQyDcfiBEk4vMYMfuu-206">
          <mxGeometry width="120" height="40" as="geometry" />
        </mxCell>
        <mxCell id="PbLQyDcfiBEk4vMYMfuu-208" value="CustomerId" style="shape=partialRectangle;html=1;whiteSpace=wrap;connectable=0;fillColor=none;top=0;left=0;bottom=0;right=0;overflow=hidden;pointerEvents=1;" vertex="1" parent="PbLQyDcfiBEk4vMYMfuu-206">
          <mxGeometry x="120" width="120" height="40" as="geometry" />
        </mxCell>
        <mxCell id="PbLQyDcfiBEk4vMYMfuu-209" value="BookId" style="shape=partialRectangle;html=1;whiteSpace=wrap;connectable=0;fillColor=none;top=0;left=0;bottom=0;right=0;overflow=hidden;pointerEvents=1;" vertex="1" parent="PbLQyDcfiBEk4vMYMfuu-206">
          <mxGeometry x="240" width="120" height="40" as="geometry" />
        </mxCell>
        <mxCell id="PbLQyDcfiBEk4vMYMfuu-210" value="" style="shape=partialRectangle;html=1;whiteSpace=wrap;collapsible=0;dropTarget=0;pointerEvents=0;fillColor=none;top=0;left=0;bottom=0;right=0;points=[[0,0.5],[1,0.5]];portConstraint=eastwest;" vertex="1" parent="PbLQyDcfiBEk4vMYMfuu-205">
          <mxGeometry y="70" width="360" height="40" as="geometry" />
        </mxCell>
        <mxCell id="PbLQyDcfiBEk4vMYMfuu-211" value="1" style="shape=partialRectangle;html=1;whiteSpace=wrap;connectable=0;fillColor=none;top=0;left=0;bottom=0;right=0;overflow=hidden;pointerEvents=1;" vertex="1" parent="PbLQyDcfiBEk4vMYMfuu-210">
          <mxGeometry width="120" height="40" as="geometry" />
        </mxCell>
        <mxCell id="PbLQyDcfiBEk4vMYMfuu-212" value="3" style="shape=partialRectangle;html=1;whiteSpace=wrap;connectable=0;fillColor=none;top=0;left=0;bottom=0;right=0;overflow=hidden;pointerEvents=1;" vertex="1" parent="PbLQyDcfiBEk4vMYMfuu-210">
          <mxGeometry x="120" width="120" height="40" as="geometry" />
        </mxCell>
        <mxCell id="PbLQyDcfiBEk4vMYMfuu-213" value="2" style="shape=partialRectangle;html=1;whiteSpace=wrap;connectable=0;fillColor=none;top=0;left=0;bottom=0;right=0;overflow=hidden;pointerEvents=1;" vertex="1" parent="PbLQyDcfiBEk4vMYMfuu-210">
          <mxGeometry x="240" width="120" height="40" as="geometry" />
        </mxCell>
        <mxCell id="PbLQyDcfiBEk4vMYMfuu-214" value="" style="shape=partialRectangle;html=1;whiteSpace=wrap;collapsible=0;dropTarget=0;pointerEvents=0;fillColor=none;top=0;left=0;bottom=0;right=0;points=[[0,0.5],[1,0.5]];portConstraint=eastwest;" vertex="1" parent="PbLQyDcfiBEk4vMYMfuu-205">
          <mxGeometry y="110" width="360" height="40" as="geometry" />
        </mxCell>
        <mxCell id="PbLQyDcfiBEk4vMYMfuu-215" value="2" style="shape=partialRectangle;html=1;whiteSpace=wrap;connectable=0;fillColor=none;top=0;left=0;bottom=0;right=0;overflow=hidden;pointerEvents=1;" vertex="1" parent="PbLQyDcfiBEk4vMYMfuu-214">
          <mxGeometry width="120" height="40" as="geometry" />
        </mxCell>
        <mxCell id="PbLQyDcfiBEk4vMYMfuu-216" value="1" style="shape=partialRectangle;html=1;whiteSpace=wrap;connectable=0;fillColor=none;top=0;left=0;bottom=0;right=0;overflow=hidden;pointerEvents=1;" vertex="1" parent="PbLQyDcfiBEk4vMYMfuu-214">
          <mxGeometry x="120" width="120" height="40" as="geometry" />
        </mxCell>
        <mxCell id="PbLQyDcfiBEk4vMYMfuu-217" value="2" style="shape=partialRectangle;html=1;whiteSpace=wrap;connectable=0;fillColor=none;top=0;left=0;bottom=0;right=0;overflow=hidden;pointerEvents=1;" vertex="1" parent="PbLQyDcfiBEk4vMYMfuu-214">
          <mxGeometry x="240" width="120" height="40" as="geometry" />
        </mxCell>
        <mxCell id="PbLQyDcfiBEk4vMYMfuu-218" value="" style="shape=partialRectangle;html=1;whiteSpace=wrap;collapsible=0;dropTarget=0;pointerEvents=0;fillColor=none;top=0;left=0;bottom=0;right=0;points=[[0,0.5],[1,0.5]];portConstraint=eastwest;" vertex="1" parent="PbLQyDcfiBEk4vMYMfuu-205">
          <mxGeometry y="150" width="360" height="40" as="geometry" />
        </mxCell>
        <mxCell id="PbLQyDcfiBEk4vMYMfuu-219" value="3" style="shape=partialRectangle;html=1;whiteSpace=wrap;connectable=0;fillColor=none;top=0;left=0;bottom=0;right=0;overflow=hidden;pointerEvents=1;" vertex="1" parent="PbLQyDcfiBEk4vMYMfuu-218">
          <mxGeometry width="120" height="40" as="geometry" />
        </mxCell>
        <mxCell id="PbLQyDcfiBEk4vMYMfuu-220" value="2" style="shape=partialRectangle;html=1;whiteSpace=wrap;connectable=0;fillColor=none;top=0;left=0;bottom=0;right=0;overflow=hidden;pointerEvents=1;" vertex="1" parent="PbLQyDcfiBEk4vMYMfuu-218">
          <mxGeometry x="120" width="120" height="40" as="geometry" />
        </mxCell>
        <mxCell id="PbLQyDcfiBEk4vMYMfuu-221" value="1" style="shape=partialRectangle;html=1;whiteSpace=wrap;connectable=0;fillColor=none;top=0;left=0;bottom=0;right=0;overflow=hidden;pointerEvents=1;" vertex="1" parent="PbLQyDcfiBEk4vMYMfuu-218">
          <mxGeometry x="240" width="120" height="40" as="geometry" />
        </mxCell>
        <mxCell id="PbLQyDcfiBEk4vMYMfuu-223" value="LateFees" style="shape=table;startSize=30;container=1;collapsible=1;childLayout=tableLayout;fixedRows=1;rowLines=0;fontStyle=1;align=center;resizeLast=1;labelBackgroundColor=#1F35FF;fontColor=#F5F5F5;" vertex="1" parent="1">
          <mxGeometry x="650" y="10" width="180" height="160" as="geometry" />
        </mxCell>
        <mxCell id="PbLQyDcfiBEk4vMYMfuu-224" value="" style="shape=partialRectangle;collapsible=0;dropTarget=0;pointerEvents=0;fillColor=none;top=0;left=0;bottom=1;right=0;points=[[0,0.5],[1,0.5]];portConstraint=eastwest;" vertex="1" parent="PbLQyDcfiBEk4vMYMfuu-223">
          <mxGeometry y="30" width="180" height="30" as="geometry" />
        </mxCell>
        <mxCell id="PbLQyDcfiBEk4vMYMfuu-225" value="PK" style="shape=partialRectangle;connectable=0;fillColor=none;top=0;left=0;bottom=0;right=0;fontStyle=1;overflow=hidden;" vertex="1" parent="PbLQyDcfiBEk4vMYMfuu-224">
          <mxGeometry width="30" height="30" as="geometry" />
        </mxCell>
        <mxCell id="PbLQyDcfiBEk4vMYMfuu-226" value="LateFeeId" style="shape=partialRectangle;connectable=0;fillColor=none;top=0;left=0;bottom=0;right=0;align=left;spacingLeft=6;fontStyle=5;overflow=hidden;" vertex="1" parent="PbLQyDcfiBEk4vMYMfuu-224">
          <mxGeometry x="30" width="150" height="30" as="geometry" />
        </mxCell>
        <mxCell id="PbLQyDcfiBEk4vMYMfuu-227" value="" style="shape=partialRectangle;collapsible=0;dropTarget=0;pointerEvents=0;fillColor=none;top=0;left=0;bottom=0;right=0;points=[[0,0.5],[1,0.5]];portConstraint=eastwest;" vertex="1" parent="PbLQyDcfiBEk4vMYMfuu-223">
          <mxGeometry y="60" width="180" height="30" as="geometry" />
        </mxCell>
        <mxCell id="PbLQyDcfiBEk4vMYMfuu-228" value="FK" style="shape=partialRectangle;connectable=0;fillColor=none;top=0;left=0;bottom=0;right=0;editable=1;overflow=hidden;" vertex="1" parent="PbLQyDcfiBEk4vMYMfuu-227">
          <mxGeometry width="30" height="30" as="geometry" />
        </mxCell>
        <mxCell id="PbLQyDcfiBEk4vMYMfuu-229" value="LentBooksId" style="shape=partialRectangle;connectable=0;fillColor=none;top=0;left=0;bottom=0;right=0;align=left;spacingLeft=6;overflow=hidden;" vertex="1" parent="PbLQyDcfiBEk4vMYMfuu-227">
          <mxGeometry x="30" width="150" height="30" as="geometry" />
        </mxCell>
        <mxCell id="PbLQyDcfiBEk4vMYMfuu-230" value="" style="shape=partialRectangle;collapsible=0;dropTarget=0;pointerEvents=0;fillColor=none;top=0;left=0;bottom=0;right=0;points=[[0,0.5],[1,0.5]];portConstraint=eastwest;" vertex="1" parent="PbLQyDcfiBEk4vMYMfuu-223">
          <mxGeometry y="90" width="180" height="30" as="geometry" />
        </mxCell>
        <mxCell id="PbLQyDcfiBEk4vMYMfuu-231" value="" style="shape=partialRectangle;connectable=0;fillColor=none;top=0;left=0;bottom=0;right=0;editable=1;overflow=hidden;" vertex="1" parent="PbLQyDcfiBEk4vMYMfuu-230">
          <mxGeometry width="30" height="30" as="geometry" />
        </mxCell>
        <mxCell id="PbLQyDcfiBEk4vMYMfuu-232" value="Amount" style="shape=partialRectangle;connectable=0;fillColor=none;top=0;left=0;bottom=0;right=0;align=left;spacingLeft=6;overflow=hidden;" vertex="1" parent="PbLQyDcfiBEk4vMYMfuu-230">
          <mxGeometry x="30" width="150" height="30" as="geometry" />
        </mxCell>
        <mxCell id="PbLQyDcfiBEk4vMYMfuu-233" value="" style="shape=partialRectangle;collapsible=0;dropTarget=0;pointerEvents=0;fillColor=none;top=0;left=0;bottom=0;right=0;points=[[0,0.5],[1,0.5]];portConstraint=eastwest;" vertex="1" parent="PbLQyDcfiBEk4vMYMfuu-223">
          <mxGeometry y="120" width="180" height="30" as="geometry" />
        </mxCell>
        <mxCell id="PbLQyDcfiBEk4vMYMfuu-234" value="" style="shape=partialRectangle;connectable=0;fillColor=none;top=0;left=0;bottom=0;right=0;editable=1;overflow=hidden;" vertex="1" parent="PbLQyDcfiBEk4vMYMfuu-233">
          <mxGeometry width="30" height="30" as="geometry" />
        </mxCell>
        <mxCell id="PbLQyDcfiBEk4vMYMfuu-235" value="IsPaid" style="shape=partialRectangle;connectable=0;fillColor=none;top=0;left=0;bottom=0;right=0;align=left;spacingLeft=6;overflow=hidden;" vertex="1" parent="PbLQyDcfiBEk4vMYMfuu-233">
          <mxGeometry x="30" width="150" height="30" as="geometry" />
        </mxCell>
        <mxCell id="PbLQyDcfiBEk4vMYMfuu-236" value="LateFeesTable" style="shape=table;startSize=30;container=1;collapsible=0;childLayout=tableLayout;fontStyle=1;align=center;pointerEvents=1;labelBackgroundColor=#1F35FF;fontColor=#F5F5F5;" vertex="1" parent="1">
          <mxGeometry x="470" y="900" width="260" height="150" as="geometry" />
        </mxCell>
        <mxCell id="PbLQyDcfiBEk4vMYMfuu-237" value="" style="shape=partialRectangle;html=1;whiteSpace=wrap;collapsible=0;dropTarget=0;pointerEvents=0;fillColor=none;top=0;left=0;bottom=0;right=0;points=[[0,0.5],[1,0.5]];portConstraint=eastwest;" vertex="1" parent="PbLQyDcfiBEk4vMYMfuu-236">
          <mxGeometry y="30" width="260" height="40" as="geometry" />
        </mxCell>
        <mxCell id="PbLQyDcfiBEk4vMYMfuu-238" value="LateFeesId" style="shape=partialRectangle;html=1;whiteSpace=wrap;connectable=0;fillColor=none;top=0;left=0;bottom=0;right=0;overflow=hidden;pointerEvents=1;" vertex="1" parent="PbLQyDcfiBEk4vMYMfuu-237">
          <mxGeometry width="87" height="40" as="geometry" />
        </mxCell>
        <mxCell id="PbLQyDcfiBEk4vMYMfuu-239" value="LentBooksId" style="shape=partialRectangle;html=1;whiteSpace=wrap;connectable=0;fillColor=none;top=0;left=0;bottom=0;right=0;overflow=hidden;pointerEvents=1;" vertex="1" parent="PbLQyDcfiBEk4vMYMfuu-237">
          <mxGeometry x="87" width="86" height="40" as="geometry" />
        </mxCell>
        <mxCell id="PbLQyDcfiBEk4vMYMfuu-240" value="Amount" style="shape=partialRectangle;html=1;whiteSpace=wrap;connectable=0;fillColor=none;top=0;left=0;bottom=0;right=0;overflow=hidden;pointerEvents=1;" vertex="1" parent="PbLQyDcfiBEk4vMYMfuu-237">
          <mxGeometry x="173" width="87" height="40" as="geometry" />
        </mxCell>
        <mxCell id="PbLQyDcfiBEk4vMYMfuu-241" value="" style="shape=partialRectangle;html=1;whiteSpace=wrap;collapsible=0;dropTarget=0;pointerEvents=0;fillColor=none;top=0;left=0;bottom=0;right=0;points=[[0,0.5],[1,0.5]];portConstraint=eastwest;" vertex="1" parent="PbLQyDcfiBEk4vMYMfuu-236">
          <mxGeometry y="70" width="260" height="40" as="geometry" />
        </mxCell>
        <mxCell id="PbLQyDcfiBEk4vMYMfuu-242" value="1" style="shape=partialRectangle;html=1;whiteSpace=wrap;connectable=0;fillColor=none;top=0;left=0;bottom=0;right=0;overflow=hidden;pointerEvents=1;" vertex="1" parent="PbLQyDcfiBEk4vMYMfuu-241">
          <mxGeometry width="87" height="40" as="geometry" />
        </mxCell>
        <mxCell id="PbLQyDcfiBEk4vMYMfuu-243" value="2" style="shape=partialRectangle;html=1;whiteSpace=wrap;connectable=0;fillColor=none;top=0;left=0;bottom=0;right=0;overflow=hidden;pointerEvents=1;" vertex="1" parent="PbLQyDcfiBEk4vMYMfuu-241">
          <mxGeometry x="87" width="86" height="40" as="geometry" />
        </mxCell>
        <mxCell id="PbLQyDcfiBEk4vMYMfuu-244" value="1.29" style="shape=partialRectangle;html=1;whiteSpace=wrap;connectable=0;fillColor=none;top=0;left=0;bottom=0;right=0;overflow=hidden;pointerEvents=1;" vertex="1" parent="PbLQyDcfiBEk4vMYMfuu-241">
          <mxGeometry x="173" width="87" height="40" as="geometry" />
        </mxCell>
        <mxCell id="PbLQyDcfiBEk4vMYMfuu-245" value="" style="shape=partialRectangle;html=1;whiteSpace=wrap;collapsible=0;dropTarget=0;pointerEvents=0;fillColor=none;top=0;left=0;bottom=0;right=0;points=[[0,0.5],[1,0.5]];portConstraint=eastwest;" vertex="1" parent="PbLQyDcfiBEk4vMYMfuu-236">
          <mxGeometry y="110" width="260" height="40" as="geometry" />
        </mxCell>
        <mxCell id="PbLQyDcfiBEk4vMYMfuu-246" value="2" style="shape=partialRectangle;html=1;whiteSpace=wrap;connectable=0;fillColor=none;top=0;left=0;bottom=0;right=0;overflow=hidden;pointerEvents=1;" vertex="1" parent="PbLQyDcfiBEk4vMYMfuu-245">
          <mxGeometry width="87" height="40" as="geometry" />
        </mxCell>
        <mxCell id="PbLQyDcfiBEk4vMYMfuu-247" value="1" style="shape=partialRectangle;html=1;whiteSpace=wrap;connectable=0;fillColor=none;top=0;left=0;bottom=0;right=0;overflow=hidden;pointerEvents=1;" vertex="1" parent="PbLQyDcfiBEk4vMYMfuu-245">
          <mxGeometry x="87" width="86" height="40" as="geometry" />
        </mxCell>
        <mxCell id="PbLQyDcfiBEk4vMYMfuu-248" value="0.65" style="shape=partialRectangle;html=1;whiteSpace=wrap;connectable=0;fillColor=none;top=0;left=0;bottom=0;right=0;overflow=hidden;pointerEvents=1;" vertex="1" parent="PbLQyDcfiBEk4vMYMfuu-245">
          <mxGeometry x="173" width="87" height="40" as="geometry" />
        </mxCell>
      </root>
    </mxGraphModel>
  </diagram>
</mxfile>
